# xmcd CD database file
#
# Track frame offsets:
#	150
#	16285
#	30616
#	45950
#	70759
#	86277
#	104869
#	123318
#	135715
#	150116
#	164224
#	177446
#	190172
#	210627
#	225497
#	245662
#
# Disc length: 3506 seconds
#
# Revision: 4
# Processed by: cddbd v1.5.2PL0 Copyright (c) Steve Scherf et al.
# Submitted via: CDex 2.21
#
DISCID=d00db010
DTITLE=Miranda Lambert - Platinum
DYEAR=2014
DGENRE=Country
TTITLE0=Girls
TTITLE1=Platinum
TTITLE2=Little Red Wagon
TTITLE3=Smokin' and Drinkin' () (feat. Little Big Town)
TTITLE4=Priscilla
TTITLE5=Automatic
TTITLE6=Bathroom Sink
TTITLE7=Old Sh!t
TTITLE8=All That's Left () (feat. The Time Jumpers)
TTITLE9=Gravity Is a Bch
TTITLE10=Babies Makin' Babies
TTITLE11=Somethin' Bad (Duet with Carrie Underwood)
TTITLE12=Holding On to You
TTITLE13=Two Rings Shy
TTITLE14=Hard Staying Sober
TTITLE15=Another Sunday in the South
EXTD=YEAR: 2014
EXTT0=
EXTT1=
EXTT2=
EXTT3=
EXTT4=
EXTT5=
EXTT6=
EXTT7=
EXTT8=
EXTT9=
EXTT10=
EXTT11=
EXTT12=
EXTT13=
EXTT14=
EXTT15=
PLAYORDER=
